M48
; DRILL file {KiCad 9.0.6} date 2025-12-28T22:51:29-0500
; FORMAT={3:3/ absolute / metric / suppress leading zeros}
; #@! TF.CreationDate,2025-12-28T22:51:29-05:00
; #@! TF.GenerationSoftware,Kicad,Pcbnew,9.0.6
; #@! TF.FileFunction,MixedPlating,1,4
FMAT,2
METRIC,TZ
; #@! TA.AperFunction,Plated,PTH,ViaDrill
T1C0.300
; #@! TA.AperFunction,Plated,PTH,ComponentDrill
T2C0.650
; #@! TA.AperFunction,Plated,PTH,ComponentDrill
T3C0.700
; #@! TA.AperFunction,Plated,PTH,ComponentDrill
T4C1.000
; #@! TA.AperFunction,Plated,PTH,ComponentDrill
T5C1.100
; #@! TA.AperFunction,Plated,PTH,ComponentDrill
T6C1.300
; #@! TA.AperFunction,Plated,PTH,ComponentDrill
T7C1.900
; #@! TA.AperFunction,NonPlated,NPTH,ComponentDrill
T8C2.200
; #@! TA.AperFunction,NonPlated,NPTH,ComponentDrill
T9C3.500
%
G90
G05
T1
X127476Y-106000
X127500Y-107000
X129500Y-97250
X131750Y-56250
X132000Y-112750
X132000Y-119750
X132702Y-92110
X133063Y-97250
X133250Y-114980
X133500Y-119250
X134015Y-115265
X134750Y-110000
X136000Y-106500
X136313Y-93500
X136452Y-91610
X136750Y-105750
X137500Y-87250
X137500Y-105000
X138750Y-104750
X139000Y-99250
X139500Y-76000
X139500Y-77500
X139500Y-79000
X139500Y-80500
X139500Y-82000
X139850Y-119650
X140000Y-116250
X140250Y-83000
X141063Y-96500
X141500Y-83000
X141500Y-92750
X141750Y-101750
X141850Y-104100
X142000Y-115000
X142050Y-119700
X142750Y-83000
X143650Y-102750
X144000Y-83000
X145250Y-83000
X145500Y-104100
X146000Y-98000
X146250Y-107500
X146750Y-103500
X146750Y-105000
X147680Y-101570
X147750Y-105750
X148000Y-102750
X148650Y-58100
X148750Y-106500
X149125Y-83875
X149250Y-85500
X151250Y-92330
X151250Y-93250
X151260Y-122763
X151750Y-69250
X151757Y-68000
X152230Y-79250
X154250Y-69250
X154257Y-68000
X155088Y-74250
X155250Y-83850
X155500Y-114750
X156088Y-77470
X156750Y-69250
X156757Y-68000
X157425Y-86175
X157500Y-117690
X158048Y-78460
X158088Y-71500
X158250Y-117190
X159100Y-80500
X159250Y-69250
X159250Y-106500
X159257Y-68000
X160088Y-72500
X160338Y-77750
X161175Y-83175
X161175Y-84175
X161175Y-85175
X161500Y-73000
X161750Y-69250
X161757Y-66750
X161757Y-68000
X161830Y-92830
X162250Y-117000
X162588Y-74500
X163500Y-106670
X163750Y-104000
X164020Y-119380
X164250Y-99000
X164250Y-100000
X164750Y-63750
X164750Y-105250
X164750Y-106670
X165250Y-112000
X165400Y-83752
X165750Y-104000
X165890Y-94310
X166000Y-106670
X166250Y-67750
X166750Y-63750
X167500Y-88750
X167500Y-90500
X167500Y-92000
X167500Y-112460
X169000Y-88750
X170500Y-88750
X171500Y-75000
X172000Y-88750
X172750Y-66750
X172750Y-75000
X173000Y-83000
X173500Y-88750
T4
X140750Y-64975
X140750Y-67515
X153500Y-53675
X164500Y-53675
X169750Y-78690
X169750Y-81230
X169750Y-83770
X169750Y-86310
T5
X130210Y-65020
X135290Y-65020
T6
X136800Y-54610
X141800Y-54610
T7
X156500Y-63675
X161500Y-63675
T8
X129000Y-54000
X129000Y-121000
X171000Y-54000
X171000Y-121000
T9
X132750Y-81680
T2
G00X170400Y-91570
M15
G01X170000Y-91570
M16
G05
G00X170400Y-96410
M15
G01X170000Y-96410
M16
G05
T3
G00X173450Y-91260
M15
G01X172950Y-91260
M16
G05
G00X173450Y-96720
M15
G01X172950Y-96720
M16
G05
M30
