M48
; DRILL file {KiCad 9.0.6} date 2025-12-14T19:09:45-0500
; FORMAT={3:3/ absolute / metric / suppress leading zeros}
; #@! TF.CreationDate,2025-12-14T19:09:45-05:00
; #@! TF.GenerationSoftware,Kicad,Pcbnew,9.0.6
; #@! TF.FileFunction,Plated,1,4,PTH
FMAT,2
METRIC,TZ
; #@! TA.AperFunction,Plated,PTH,ViaDrill
T1C0.300
; #@! TA.AperFunction,Plated,PTH,ComponentDrill
T2C0.650
; #@! TA.AperFunction,Plated,PTH,ComponentDrill
T3C0.700
; #@! TA.AperFunction,Plated,PTH,ComponentDrill
T4C1.000
; #@! TA.AperFunction,Plated,PTH,ComponentDrill
T5C1.100
; #@! TA.AperFunction,Plated,PTH,ComponentDrill
T6C1.300
; #@! TA.AperFunction,Plated,PTH,ComponentDrill
T7C1.900
%
G90
G05
T1
X101945Y-95455
X103000Y-94488
X104150Y-95508
X105664Y-92456
X109220Y-115943
X109250Y-120873
X113040Y-95518
X113100Y-98027
X113110Y-96777
X113270Y-118473
X113270Y-119443
X113290Y-117523
X115245Y-121310
X115250Y-126320
X117958Y-108149
X118105Y-109075
X118106Y-107261
X118720Y-122873
X120920Y-123793
X121890Y-119732
X122010Y-127102
X122230Y-110460
X122900Y-123203
X123220Y-95540
X123560Y-119932
X124380Y-84600
X125670Y-123033
X125910Y-86200
X126990Y-90840
X128030Y-87370
X128310Y-96460
X129000Y-121310
X129000Y-126320
X129120Y-96440
X130301Y-96370
T4
X114825Y-67300
X117365Y-67300
X127500Y-56175
X134618Y-89773
X137158Y-89773
X138500Y-56175
X139698Y-89773
X142237Y-89773
T5
X105260Y-67300
X110340Y-67300
T6
X113000Y-57133
X118000Y-57133
T7
X130500Y-66175
X135500Y-66175
T2
G00X145410Y-100850
M15
G01X145010Y-100850
M16
G05
G00X145410Y-105690
M15
G01X145010Y-105690
M16
G05
T3
G00X148460Y-100540
M15
G01X147960Y-100540
M16
G05
G00X148460Y-106000
M15
G01X147960Y-106000
M16
G05
M30
