M48
; DRILL file {KiCad 9.0.6} date 2025-12-14T19:09:45-0500
; FORMAT={3:3/ absolute / metric / suppress leading zeros}
; #@! TF.CreationDate,2025-12-14T19:09:45-05:00
; #@! TF.GenerationSoftware,Kicad,Pcbnew,9.0.6
; #@! TF.FileFunction,Plated,1,2,Blind
FMAT,2
METRIC,TZ
; #@! TA.AperFunction,Plated,Buried,ViaDrill
T1C0.300
; #@! TA.AperFunction,Plated,Buried,ViaDrill
T2C0.800
%
G90
G05
T1
X103400Y-61975
X105590Y-99258
X107460Y-118533
X113030Y-92058
X115080Y-105790
X116000Y-75975
X116000Y-108640
X116715Y-90345
X118260Y-99600
X118265Y-86245
X119820Y-126950
X120555Y-89195
X122150Y-68675
X122330Y-95770
X122600Y-86740
X123480Y-92890
X125180Y-91010
X127080Y-111440
X128950Y-86080
X129000Y-90100
X130500Y-83570
X131140Y-99390
X132990Y-125940
X135900Y-82935
X136610Y-86200
X136910Y-108900
X137855Y-93515
X139050Y-109180
X139427Y-97583
X141830Y-103600
X142230Y-92170
X143480Y-101440
X143940Y-85530
X144470Y-108810
X144560Y-116930
T2
X117602Y-78232
X142675Y-66175
X145600Y-69800
M30
